<svg width="45" height="40" viewBox="0 0 45 40" fill="none" xmlns="http://www.w3.org/2000/svg">
<path fill-rule="evenodd" clip-rule="evenodd" d="M27.616 3.1741L43.3865 30.4765C45.1401 33.5125 44.1006 37.3951 41.0645 39.1489C40.0991 39.7065 39.004 40 37.8892 40H6.34831C2.84214 40 1.65962e-10 37.1579 1.65962e-10 33.6517C-8.05944e-06 32.5369 0.293532 31.4418 0.851096 30.4765L16.6216 3.1741C18.3754 0.138127 22.258 -0.901515 25.294 0.852311C26.2582 1.40921 27.059 2.20992 27.616 3.1741Z" fill="white"/>
<path fill-rule="evenodd" clip-rule="evenodd" d="M19.3759 32.3285L12.9423 21.2831C12.0599 19.7682 12.5726 17.8249 14.0873 16.9425C14.5724 16.66 15.1237 16.5112 15.685 16.5113H28.5526C30.3056 16.5113 31.7267 17.9324 31.7267 19.6854C31.7267 20.2468 31.5778 20.798 31.2953 21.2831L24.8617 32.3285C23.9793 33.8434 22.0361 34.3561 20.5211 33.4737C20.0468 33.1974 19.6522 32.8028 19.3759 32.3285Z" fill="black"/>
</svg>
